<?xml version="1.0" encoding="utf-8"?>
<!-- Generator: Adobe Illustrator 23.0.1, SVG Export Plug-In . SVG Version: 6.00 Build 0)  -->
<svg version="1.1" id="Calque_1" xmlns="http://www.w3.org/2000/svg" xmlns:xlink="http://www.w3.org/1999/xlink" x="0px" y="0px"
	 viewBox="0 0 250 250" style="enable-background:new 0 0 250 250;" xml:space="preserve">
<style type="text/css">
	.st0{fill:#ffffffff;}
	.st1{font-family:'AraHamahAlThawra-Regular';}
	.st2{font-size:30.789px;}
	.st3{font-size:14.6009px;}
</style>
<g>
	<g>
		<g>
			<path class="st0" d="M11.71,53.94C14.64,58.8,18.7,63,23.7,66.15l10.65,6.71L45,66.15c5-3.15,9.06-7.34,11.99-12.21l-5.69-4.41
				L37.41,60.3c0.11,0.37,0.17,0.77,0.17,1.18c0,2.31-1.87,4.18-4.18,4.18c-2.31,0-4.18-1.87-4.18-4.18c0-2.31,1.87-4.18,4.18-4.18
				c0.82,0,1.58,0.24,2.22,0.64l13.27-10.29l-5.58-4.33L29.1,54.35c0.12,0.39,0.18,0.8,0.18,1.23c0,2.31-1.87,4.18-4.18,4.18
				c-2.31,0-4.18-1.87-4.18-4.18c0-2.31,1.87-4.18,4.18-4.18c0.8,0,1.55,0.23,2.18,0.62L40.9,41.46l-6.55-5.07L16.24,50.43v0.02
				h-0.03L11.71,53.94z"/>
			<path class="st0" d="M58.43,51.31c2.48-5.01,3.83-10.61,3.83-16.43V18.33c-1.44-0.14-3.87-0.45-6.84-1.1v15.52
				c1.58,0.6,2.7,2.12,2.7,3.91c0,2.31-1.87,4.18-4.18,4.18c-2.31,0-4.18-1.87-4.18-4.18c0-1.79,1.12-3.31,2.7-3.91V16.51
				c-2.15-0.58-4.47-1.34-6.84-2.32v11.05c1.58,0.6,2.7,2.12,2.7,3.91c0,2.31-1.87,4.18-4.18,4.18c-2.31,0-4.18-1.87-4.18-4.18
				c0-1.79,1.12-3.31,2.7-3.91V12.85c-2.32-1.14-4.64-2.51-6.84-4.16v25.1L58.43,51.31z"/>
			<path class="st0" d="M6.44,34.88c0,5.82,1.34,11.42,3.83,16.43l3.01-2.33V29.33c-1.58-0.6-2.7-2.12-2.7-3.91
				c0-2.31,1.87-4.18,4.18-4.18c2.31,0,4.18,1.87,4.18,4.18c0,1.79-1.12,3.31-2.7,3.91v17.36l6.84-5.3v-14.9
				c-1.58-0.6-2.7-2.12-2.7-3.91c0-2.31,1.87-4.18,4.18-4.18c2.31,0,4.18,1.87,4.18,4.18c0,1.79-1.12,3.31-2.7,3.91v12.61l6.84-5.3
				V8.69c-9.94,7.45-22.28,9.24-26.43,9.64V34.88z"/>
			<circle class="st0" cx="14.76" cy="25.42" r="2.21"/>
			<path class="st0" d="M24.55,24.78c-1.22,0-2.21-0.99-2.21-2.21c0-1.22,0.99-2.21,2.21-2.21c1.22,0,2.21,0.99,2.21,2.21
				C26.76,23.79,25.77,24.78,24.55,24.78z"/>
			<path class="st0" d="M44.14,31.35c-1.22,0-2.21-0.99-2.21-2.21c0-1.22,0.99-2.21,2.21-2.21c1.22,0,2.21,0.99,2.21,2.21
				C46.35,30.36,45.36,31.35,44.14,31.35z"/>
			<path class="st0" d="M25.1,57.79c-1.22,0-2.21-0.99-2.21-2.21c0-1.22,0.99-2.21,2.21-2.21c1.22,0,2.21,0.99,2.21,2.21
				C27.31,56.8,26.32,57.79,25.1,57.79z"/>
			<path class="st0" d="M33.4,63.69c-1.22,0-2.21-0.99-2.21-2.21c0-1.22,0.99-2.21,2.21-2.21c1.22,0,2.21,0.99,2.21,2.21
				C35.61,62.7,34.62,63.69,33.4,63.69z"/>
			<circle class="st0" cx="53.94" cy="36.66" r="2.21"/>
		</g>
	</g>
	<text transform="matrix(1 0 0 1 75.896 44.887)" class="st0 st1 st2">PASSWORD</text>
	<text transform="matrix(1 0 0 1 77.105 57.7366)" class="st0 st1 st3">MANAGER</text>
</g>
</svg>
